<svg width="1008" height="945" viewBox="0 0 1008 945" fill="none" xmlns="http://www.w3.org/2000/svg">
<path d="M1008 0.000133422C655.662 97.8895 534.399 246.853 506.829 361.445C479.26 476.037 438.851 580.158 387.91 667.863C336.969 755.568 276.493 825.139 209.936 872.605C143.378 920.07 72.0416 944.5 -2.59549e-05 944.5L0.000190125 0.000779729L1008 0.000133422Z" fill="#7F43FE" fill-opacity="0.1"/>
<path d="M829.032 0.529584C606.399 67.7293 460.126 218.479 436.42 319.654C412.715 420.829 377.968 512.758 334.166 590.194C290.363 667.63 238.362 729.055 181.132 770.963C123.901 812.871 62.5613 834.441 0.615168 834.441L0.615363 0.529521L829.032 0.529584Z" fill="#7F43FE" fill-opacity="0.3"/>
<path d="M673.435 0.52962C509.228 54.5011 460.126 181.97 436.42 266.197C412.715 350.424 377.968 426.954 334.166 491.418C290.363 555.883 238.362 607.019 181.132 641.907C123.901 676.795 62.5613 694.751 0.615195 694.751L0.615363 0.530224L673.435 0.52962Z" fill="#7F43FE" fill-opacity="0.5"/>
</svg>
