<svg width="1273" height="945" viewBox="0 0 1273 945" fill="none" xmlns="http://www.w3.org/2000/svg">
<path d="M1273 0.000126071C828.033 97.8895 674.89 246.853 640.073 361.445C605.256 476.037 554.224 580.158 489.891 667.863C425.557 755.568 349.183 825.139 265.127 872.605C181.071 920.07 90.9811 944.5 9.84946e-06 944.5L0.000261028 0.000749211L1273 0.000126071Z" fill="#7F43FE" fill-opacity="0.1"/>
<path d="M1046.98 0.529573C765.82 67.7293 581.092 218.479 551.154 319.654C521.216 420.829 477.335 512.758 422.017 590.194C366.699 667.63 301.027 729.055 228.75 770.963C156.474 812.871 79.0084 834.441 0.776889 834.441L0.777116 0.529491L1046.98 0.529573Z" fill="#7F43FE" fill-opacity="0.3"/>
<path d="M850.479 0.529605C643.102 54.5011 581.092 181.97 551.154 266.197C521.216 350.424 477.335 426.954 422.017 491.418C366.699 555.883 301.027 607.019 228.75 641.907C156.474 676.795 79.0084 694.751 0.776919 694.751L0.777116 0.530193L850.479 0.529605Z" fill="#7F43FE" fill-opacity="0.5"/>
</svg>
