<?xml version="1.0" ?><svg id="Outline" viewBox="0 0 64 64" xmlns="http://www.w3.org/2000/svg"><g data-name="Outline" id="Outline-2"><circle cx="23.861" cy="39.37" r="1"/><path d="M11,48a5,5,0,1,0,5,5A5.006,5.006,0,0,0,11,48Zm0,8a3,3,0,1,1,3-3A3,3,0,0,1,11,56Z"/><path d="M35,17a4,4,0,1,0-4-4A4,4,0,0,0,35,17Zm0-6a2,2,0,1,1-2,2A2,2,0,0,1,35,11Z"/><path d="M47,21a4,4,0,1,0,4,4A4,4,0,0,0,47,21Zm0,6a2,2,0,1,1,2-2A2,2,0,0,1,47,27Z"/><path d="M24,20a1,1,0,0,0-1,1v5a1,1,0,0,0,2,0V21A1,1,0,0,0,24,20Z"/><path d="M24,10a1,1,0,0,0-1,1v5a1,1,0,0,0,2,0V11A1,1,0,0,0,24,10Z"/><path d="M61,12a1,1,0,0,0,1-1V5a3,3,0,0,0-3-3H5A3,3,0,0,0,2,5v6a1,1,0,0,0,1,1,6.52,6.52,0,0,1,5.835,3.7,10.433,10.433,0,0,0-1.856,7.929A6.459,6.459,0,0,1,3,25a1,1,0,0,0-1,1v5a4,4,0,0,0,4,4h7.738L16.9,39.518l-3.39,4.844A9,9,0,1,0,19.667,55.4l4.179-5.966,4.761,6.8A9,9,0,1,0,37,44a8.894,8.894,0,0,0-2.771.437l-3.442-4.918L33.952,35H58a4,4,0,0,0,4-4V26a1,1,0,0,0-1-1,6.5,6.5,0,0,1,0-13ZM6,33a2,2,0,0,1-2-2V26.941a8.46,8.46,0,0,0,3.551-1.282A10.373,10.373,0,0,0,8.693,27.8L12.337,33ZM17.927,54.394a1.01,1.01,0,0,0-.151.328,7.005,7.005,0,1,1-4.238-8.24,1,1,0,0,0,1.183-.358l3.4-4.862,4.5,6.425Zm15.107-8.175a1,1,0,0,0,1.214.345A6.925,6.925,0,0,1,37,46a7,7,0,1,1-6.562,9.411,1.079,1.079,0,0,0-.12-.228L10.331,26.651A8.4,8.4,0,0,1,11.6,15.594Zm-3.467-8.443L27.624,35h3.887ZM52.5,18.5A8.511,8.511,0,0,0,60,26.941V31a2,2,0,0,1-2,2H26.224L12.632,13.578a1.006,1.006,0,0,0-1.394-.245,10.537,10.537,0,0,0-.98.79A8.563,8.563,0,0,0,4,10.06V5A1,1,0,0,1,5,4H23V6a1,1,0,0,0,2,0V4H59a1,1,0,0,1,1,1v5.059A8.511,8.511,0,0,0,52.5,18.5Z"/><path d="M37,58a5,5,0,1,0-5-5A5.006,5.006,0,0,0,37,58Zm0-8a3,3,0,1,1-3,3A3,3,0,0,1,37,50Z"/><path d="M31.882,25A3.11,3.11,0,0,0,37.2,27.194L49.121,15.122a3.026,3.026,0,0,0,0-4.243,3.086,3.086,0,0,0-4.238,0L32.806,22.8A3.094,3.094,0,0,0,31.882,25Zm2.329-.78L46.294,12.292A1,1,0,1,1,47.7,13.711L35.78,25.788a1.109,1.109,0,1,1-1.569-1.568Z"/></g></svg>